<svg width="175" height="52" viewBox="0 0 175 52" fill="none" xmlns="http://www.w3.org/2000/svg">
<g clip-path="url(#clip0_701_22)">
<path d="M25.338 50.449C24.2656 50.3168 23.46 49.4173 23.4567 48.3495C23.4567 48.3495 21.2444 47.2578 21.7798 41.5859C22.3152 35.914 20.1952 33.1253 20.1952 33.1253C17.6818 29.6167 16.0272 25.5794 15.3618 21.3313C14.4664 20.9543 12.3689 22.4518 12.3689 22.4518C8.54964 24.249 6.73064 21.5901 6.18943 20.5485C6.49204 20.7629 7.30095 20.6997 9.48991 19.0051C13.098 16.2057 15.3834 17.7097 15.3834 17.7097C17.6014 14.3008 16.8607 13.6847 19.3631 10.1009C21.8654 6.51704 29.6677 9.52015 29.6719 9.52015V50.5057L25.338 50.449ZM24.8691 28.4301C24.8816 28.3841 25.8759 24.7386 25.6124 23.8671C25.6124 23.8671 24.7145 26.9277 24.4376 26.6057C24.4376 26.6057 18.4403 25.1756 17.8425 24.3131C17.8425 24.3131 19.2841 27.8214 21.2735 28.357C21.9793 28.2033 22.6985 28.1179 23.4209 28.1023C23.9263 28.0621 24.4319 28.1765 24.8691 28.4301ZM5.99905 20.1592C6.05187 20.2945 6.11323 20.4265 6.18278 20.5543C6.12361 20.5067 6.07628 20.4463 6.04443 20.3778C6.01258 20.3093 5.99706 20.2345 5.99905 20.1592ZM3.92067 13.1599C-2.90808 7.97259 1.26033 0.00317383 1.26033 0.00317383C1.86972 4.00185 3.06687 6.80043 6.29335 8.80551C9.76924 10.9617 17.5 10.7309 17.5 10.7309L15.3559 15.4623C14.5301 15.5824 13.6966 15.6428 12.8619 15.643C9.70689 15.643 6.61259 14.7822 3.92067 13.1566V13.1599Z" fill="#959490"/>
<path d="M136.996 51.5893C134.982 51.5871 133.05 50.7955 131.626 49.3879C130.201 47.9804 129.4 46.0721 129.398 44.0815V14.4455C129.4 12.455 130.201 10.5466 131.626 9.13912C133.05 7.73161 134.982 6.93992 136.996 6.93774H166.985C171.179 6.94349 174.578 10.3015 174.583 14.4455V44.0758C174.585 48.224 171.183 51.5877 166.985 51.5893H136.996ZM132.258 14.4455V44.0758C132.26 45.3191 132.761 46.5108 133.65 47.3899C134.54 48.2691 135.746 48.7639 137.005 48.7661H166.992C168.251 48.7641 169.457 48.2694 170.347 47.3902C171.237 46.5111 171.738 45.3192 171.74 44.0758V14.4455C171.735 11.8564 169.613 9.75932 166.992 9.75439H137.002C134.381 9.75686 132.258 11.8556 132.255 14.4455H132.258ZM88.8609 51.5893C84.6667 51.5844 81.2673 48.2256 81.2623 44.0815V14.4455C81.2673 10.3039 84.6626 6.94596 88.8543 6.93774H118.843C123.037 6.94349 126.436 10.3015 126.441 14.4455V44.0758C126.439 48.2223 123.04 51.5836 118.843 51.5893H88.8609ZM84.1064 14.4455V44.0758C84.1086 45.3192 84.6095 46.5111 85.4995 47.3902C86.3894 48.2694 87.5958 48.7641 88.8543 48.7661H118.843C120.101 48.7639 121.307 48.2691 122.197 47.3899C123.087 46.5108 123.588 45.3191 123.59 44.0758V14.4455C123.588 13.2021 123.087 12.0102 122.197 11.1308C121.308 10.2515 120.101 9.75657 118.843 9.75439H88.8543C87.5956 9.75635 86.3892 10.2512 85.4992 11.1306C84.6092 12.0099 84.1084 13.202 84.1064 14.4455ZM41.4114 51.5893C37.2172 51.5836 33.8186 48.2256 33.8128 44.0815V14.4455C33.8186 10.3015 37.2172 6.94349 41.4114 6.93774H71.4C73.4146 6.93992 75.346 7.73161 76.7705 9.13912C78.1951 10.5466 78.9964 12.455 78.9986 14.4455V44.0758C78.9969 48.2223 75.5967 51.5844 71.4 51.5893H41.4114ZM36.6635 14.4447V44.0758C36.6693 46.6641 38.7918 48.7612 41.4114 48.7661H71.4C72.6584 48.7641 73.8648 48.2694 74.7547 47.3902C75.6447 46.5111 76.1456 45.3192 76.1478 44.0758V14.4455C76.1459 13.202 75.645 12.0099 74.755 11.1306C73.8651 10.2512 72.6586 9.75635 71.4 9.75439H41.4114C40.1529 9.75635 38.9466 10.2511 38.0566 11.1303C37.1667 12.0094 36.6657 13.2013 36.6635 14.4447ZM64.9404 40.593H51.4832C50.035 40.6225 48.5893 40.4599 47.1851 40.1083C46.102 39.8381 45.1084 39.295 44.3012 38.532C43.521 37.7368 42.9597 36.7576 42.6709 35.6874C42.2967 34.303 42.1221 32.8733 42.1521 31.4407V25.4756C42.1236 24.0484 42.2983 22.6244 42.6709 21.2452C42.9569 20.1782 43.5189 19.2032 44.3012 18.4154C45.1114 17.6527 46.1034 17.1043 47.1851 16.8211C48.5879 16.4604 50.0341 16.2918 51.4832 16.32H59.7702C61.225 16.2925 62.6769 16.4611 64.0857 16.8211C65.1725 17.1011 66.1693 17.6498 66.9822 18.4154C67.759 19.2046 68.3147 20.1798 68.595 21.2452C68.865 22.2466 69.0219 23.2745 69.063 24.31L63.9045 24.4167C63.875 24.1717 63.8331 23.9282 63.779 23.6873C63.6684 23.1485 63.4215 22.6458 63.0607 22.226C62.6915 21.8523 62.2243 21.5886 61.7105 21.4654C61.0068 21.299 60.2841 21.2233 59.5607 21.2403L51.6778 21.274C50.9537 21.2567 50.2312 21.3331 49.5271 21.4999C49.0126 21.6195 48.5439 21.883 48.1769 22.2589C47.8145 22.6679 47.5676 23.1641 47.4611 23.6972C47.3026 24.4477 47.2301 25.2134 47.245 25.9799V30.9692C47.2311 31.7414 47.3036 32.5127 47.4611 33.2692C47.5733 33.8055 47.8203 34.3052 48.1794 34.7223C48.5489 35.0956 49.017 35.3591 49.5304 35.4829C50.2339 35.6494 50.9562 35.725 51.6794 35.708H62.6674C62.9002 35.728 63.1346 35.6964 63.3535 35.6155C63.5724 35.5346 63.7703 35.4066 63.9328 35.2406C64.2487 34.7528 64.3892 34.1741 64.3318 33.5978V33.0778C64.3318 32.7804 64.2005 32.6285 63.9328 32.6285H54.1735C53.6788 32.6285 53.4353 32.3582 53.4353 31.8284V29.2303C53.4353 28.6955 53.6847 28.4302 54.1735 28.4302H68.0646C68.7297 28.4302 69.068 28.7744 69.0747 29.4668V35.2899C69.0747 37.229 68.7191 38.598 68.0081 39.397C67.6447 39.7771 67.2065 40.0797 66.7204 40.2864C66.2343 40.493 65.7106 40.5993 65.1814 40.5987C65.1033 40.6004 65.0227 40.5979 64.9404 40.593ZM94.4276 40.0894C93.3441 39.8203 92.3502 39.277 91.5437 38.5131C90.7638 37.7177 90.2026 36.7385 89.9134 35.6686C89.5393 34.2844 89.3647 32.855 89.3946 31.4226V25.4575C89.3662 24.0303 89.5408 22.6063 89.9134 21.2272C90.1994 20.1602 90.7612 19.1851 91.5437 18.3974C92.3541 17.6349 93.346 17.0866 94.4276 16.803C95.8301 16.4432 97.2767 16.2748 98.7257 16.3028H109.023C110.477 16.2754 111.928 16.4437 113.337 16.803C114.424 17.082 115.421 17.6308 116.233 18.3974C117.01 19.1879 117.565 20.1641 117.844 21.2305C118.114 22.2318 118.271 23.2594 118.312 24.2944H113.153C113.124 24.0487 113.082 23.8056 113.028 23.5641C112.917 23.0251 112.671 22.5225 112.31 22.1036C111.941 21.7301 111.473 21.4665 110.96 21.343C110.256 21.1762 109.533 21.1006 108.809 21.1179H98.9161C98.1929 21.1006 97.4705 21.1763 96.7671 21.343C96.2507 21.4593 95.7807 21.724 95.4161 22.1036C95.0512 22.5197 94.8034 23.0234 94.6978 23.5641C94.5416 24.3108 94.4691 25.0722 94.4817 25.8345V31.0341C94.4691 31.7962 94.5416 32.5573 94.6978 33.3037C94.8098 33.8398 95.0568 34.3393 95.4161 34.756C95.7851 35.13 96.2533 35.3936 96.7671 35.5166C97.4704 35.6833 98.1928 35.7589 98.9161 35.7425H108.809C109.533 35.7563 110.255 35.6804 110.96 35.5166C111.476 35.401 111.946 35.1362 112.31 34.756C112.676 34.3436 112.923 33.8425 113.028 33.3037C113.08 33.0803 113.119 32.8322 113.153 32.5734V32.5858H118.312C118.273 33.6284 118.117 34.6635 117.845 35.6718C117.569 36.7424 117.012 37.7223 116.231 38.5131C115.421 39.2787 114.423 39.8225 113.334 40.0894C111.924 40.4369 110.474 40.6004 109.02 40.5741H98.7249C98.6113 40.5741 98.4974 40.5741 98.3832 40.5741C97.0492 40.5755 95.721 40.4127 94.4276 40.0894ZM159.432 40.5503H139.646C138.981 40.5503 138.648 40.2012 138.648 39.5087V17.3345C138.648 16.642 138.981 16.2929 139.646 16.2929H158.838C161.124 16.2929 162.751 16.7658 163.718 17.7115C164.238 18.2956 164.634 18.9771 164.883 19.7155C165.132 20.454 165.228 21.2342 165.165 22.01V23.6709C165.266 25.4033 164.462 27.0658 163.033 28.0753C163.794 28.5424 164.41 29.2063 164.815 29.995C165.22 30.7837 165.398 31.6669 165.331 32.5488V34.558C165.34 35.3991 165.239 36.2378 165.029 37.0527C164.85 37.7476 164.515 38.3932 164.048 38.9419C163.554 39.4854 162.928 39.8957 162.23 40.1338C161.395 40.4114 160.521 40.5529 159.641 40.5527C159.571 40.5527 159.502 40.5524 159.432 40.5503ZM143.746 35.326C143.746 35.625 143.89 35.7762 144.18 35.7762H157.838C158.511 35.8383 159.184 35.6612 159.735 35.2767C160.15 34.8455 160.355 34.2582 160.3 33.6659V32.3434C160.344 31.7381 160.12 31.1434 159.685 30.7146C159.013 30.2759 158.208 30.0821 157.408 30.1675H143.747V30.1601L143.746 35.326ZM143.746 21.5311V26.3824H157.404C158.196 26.4646 158.993 26.2821 159.667 25.8641C160.088 25.469 160.307 24.9088 160.266 24.3371V23.1583C160.317 22.5735 160.104 21.9968 159.684 21.582C159.136 21.2008 158.469 21.023 157.802 21.0801H144.179C143.889 21.0801 143.745 21.2305 143.745 21.5303L143.746 21.5311Z" fill="#C28F5D"/>
</g>
<defs>
<clipPath id="clip0_701_22">
<rect width="175" height="52" fill="white"/>
</clipPath>
</defs>
</svg>
