<svg width="332" height="332" viewBox="0 0 332 332" fill="none" xmlns="http://www.w3.org/2000/svg">
<circle cx="166" cy="166" r="166" fill="white"/>
<g clip-path="url(#clip0_703_204)">
<path d="M100.16 293.162C105.249 288.852 108.34 282.043 107.529 275.414C106.719 268.786 101.698 262.693 95.1854 261.285C88.6728 259.877 81.2488 263.774 79.2707 270.151C78.1821 257.856 76.9276 245.047 70.4066 234.577C64.5019 225.097 54.2749 218.314 43.1911 217.1C32.1073 215.887 20.4375 220.47 13.525 229.239C6.61243 238.008 4.91993 250.756 9.76129 260.823C13.3278 268.24 19.8984 273.759 26.7829 278.249C49.029 292.636 75.7103 298.487 101.918 294.725" fill="#F2F2F2"/>
<path d="M24.4856 220.724C33.631 228.191 42.021 236.542 49.5342 245.656C61.2924 259.871 70.8072 275.809 77.7472 292.914C78.2552 294.162 76.2337 294.705 75.7313 293.471C71.318 282.656 65.8578 272.301 59.4292 262.554C49.4045 247.328 37.1228 233.722 23.0073 222.206C21.9636 221.354 23.4505 219.879 24.4856 220.724Z" fill="white"/>
<path d="M103.675 293.162C98.5862 288.852 95.4952 282.043 96.3058 275.414C97.1165 268.786 102.137 262.693 108.65 261.285C115.162 259.877 122.586 263.774 124.564 270.151C125.653 257.856 126.908 245.047 133.429 234.577C139.333 225.097 149.56 218.314 160.644 217.1C171.728 215.887 183.398 220.47 190.31 229.239C197.223 238.008 198.915 250.756 194.074 260.823C190.507 268.24 183.937 273.759 177.052 278.249C154.806 292.636 128.125 298.487 101.918 294.725" fill="#F2F2F2"/>
<path d="M179.35 220.724C170.204 228.191 161.814 236.542 154.301 245.656C142.543 259.871 133.028 275.809 126.088 292.914C125.58 294.162 127.602 294.705 128.104 293.471C139.459 265.672 157.586 241.17 180.828 222.206C181.872 221.354 180.385 219.879 179.35 220.724Z" fill="white"/>
<path d="M118.776 146.359C128.19 146.359 135.822 138.709 135.822 129.273C135.822 119.836 128.19 112.186 118.776 112.186C109.362 112.186 101.73 119.836 101.73 129.273C101.73 138.709 109.362 146.359 118.776 146.359Z" fill="#F2F2F2"/>
<path d="M66.2185 70.3738H183.661V76.8143H81.211C75.1874 76.8143 69.2227 78.0035 63.6576 80.3141C58.0924 82.6247 53.0358 86.0113 48.7765 90.2807C44.5171 94.5501 41.1384 99.6186 38.8332 105.197C36.5281 110.775 35.3416 116.754 35.3416 122.792V195.964H22.4909C21.9228 195.964 21.3781 195.737 20.9764 195.335C20.5747 194.932 20.3491 194.386 20.3491 193.817V116.351C20.3491 110.313 21.5355 104.335 23.8407 98.7563C26.1458 93.1781 29.5245 88.1096 33.7839 83.8402C38.0433 79.5708 43.0999 76.1841 48.665 73.8736C54.2302 71.563 60.1948 70.3738 66.2185 70.3738Z" fill="#F2F2F2"/>
<path d="M88.808 293.52V195.688H117.401V293.52C117.401 294.177 117.14 294.808 116.676 295.273C116.212 295.738 115.583 295.999 114.927 296H91.2824C90.6264 295.999 89.9974 295.738 89.5335 295.273C89.0697 294.808 88.8087 294.177 88.808 293.52Z" fill="#3F3D56"/>
<path d="M14.3005 193.759V114.207C14.3148 101.543 19.3401 89.4011 28.274 80.4462C37.2079 71.4912 49.3208 66.454 61.9552 66.4397H183.111V196.515H17.0499C16.3209 196.514 15.6221 196.223 15.1067 195.707C14.5913 195.19 14.3013 194.489 14.3005 193.759ZM182.011 67.542H61.9552C49.6123 67.5561 37.779 72.477 29.0513 81.2253C20.3236 89.9736 15.4142 101.835 15.4002 114.207V193.759C15.4007 194.197 15.5747 194.618 15.8839 194.928C16.1932 195.238 16.6125 195.412 17.0499 195.412H182.011V67.542Z" fill="#3F3D56"/>
<path d="M118.776 138.091C116.152 138.088 113.636 137.042 111.78 135.182C109.925 133.322 108.881 130.801 108.878 128.17V57.0699C108.878 56.6315 108.704 56.2112 108.395 55.9012C108.085 55.5913 107.666 55.4169 107.229 55.4164H68.7377C68.0088 55.4156 67.31 55.125 66.7946 54.6083C66.2791 54.0917 65.9892 53.3912 65.9883 52.6606V26.7558C65.9892 26.0252 66.2791 25.3247 66.7946 24.8081C67.31 24.2915 68.0088 24.0008 68.7377 24H125.924C126.653 24.0008 127.352 24.2914 127.867 24.8081C128.383 25.3247 128.673 26.0252 128.674 26.7558V128.17C128.671 130.801 127.627 133.322 125.771 135.182C123.916 137.042 121.4 138.088 118.776 138.091Z" fill="#C28E5B"/>
<path d="M187.51 65.3373C195.805 65.3199 203.767 68.6062 209.645 74.4733C215.523 80.3403 218.835 88.3076 218.852 96.6223V187.184H280.438C282.912 187.179 285.287 188.159 287.04 189.909C288.793 191.659 289.78 194.035 289.786 196.515H156.167V96.6223C156.185 88.3076 159.496 80.3403 165.374 74.4733C171.252 68.6062 179.215 65.3199 187.51 65.3373Z" fill="#3F3D56"/>
<path d="M179.989 116.909L186.479 143.781L313.433 112.976L306.943 86.1031C306.865 85.7745 306.705 85.4711 306.478 85.2211C306.252 84.971 305.966 84.7824 305.647 84.6727C305.412 84.5898 305.163 84.5522 304.913 84.5621L231.528 46.4755C231.098 46.2554 230.604 46.1966 230.134 46.3097C229.665 46.4229 229.251 46.7005 228.968 47.0924L193.6 96.5285L180.267 115.17C180.243 115.203 180.226 115.241 180.217 115.28C180.209 115.32 180.209 115.361 180.218 115.401C179.947 115.854 179.864 116.395 179.989 116.909Z" fill="white"/>
<path d="M180.218 115.401C180.224 115.436 180.237 115.469 180.257 115.499C180.276 115.529 180.301 115.555 180.33 115.575C180.364 115.599 180.403 115.615 180.444 115.623C180.485 115.631 180.527 115.631 180.568 115.622C180.634 115.604 180.693 115.564 180.732 115.508L180.778 115.444L181.472 114.471L194.08 96.8537L229.437 47.4289C229.639 47.1488 229.934 46.9505 230.27 46.87C230.605 46.7895 230.958 46.8321 231.264 46.9901L304.081 84.7816L304.734 85.1216C304.761 85.1327 304.788 85.1422 304.815 85.15C304.865 85.1411 304.915 85.1363 304.965 85.1357C305.033 85.1128 305.09 85.0645 305.124 85.0008C305.142 84.9673 305.153 84.9305 305.156 84.8927C305.16 84.8549 305.156 84.8168 305.145 84.7805C305.133 84.7442 305.115 84.7105 305.091 84.6813C305.067 84.6521 305.037 84.6279 305.004 84.6102L304.913 84.5621L231.528 46.4755C231.098 46.2554 230.604 46.1966 230.134 46.3097C229.665 46.4229 229.251 46.7005 228.968 47.0924L193.6 96.5285L180.267 115.17C180.243 115.203 180.226 115.241 180.217 115.28C180.209 115.32 180.209 115.361 180.218 115.401Z" fill="#3F3D56"/>
<path d="M218.347 118.141L221.173 118.455L242.146 120.784L256.05 122.327L256.871 122.419L274.221 108.835L274.885 108.315L278.983 105.107L293.562 93.6945L293.65 92.8929L298.835 45.981C298.906 45.335 298.718 44.6873 298.313 44.1799C297.908 43.6724 297.319 43.3466 296.675 43.2739L227.47 35.5897C226.826 35.5192 226.18 35.7075 225.674 36.1134C225.168 36.5193 224.843 37.1097 224.77 37.7554L221.113 70.846L219.084 89.1919L217.27 105.605L216.429 113.227L216.183 115.435C216.113 116.081 216.302 116.729 216.707 117.236C217.113 117.743 217.702 118.069 218.347 118.141Z" fill="#E6E6E6"/>
<path d="M237.364 77.0208L267.341 80.3488L277.972 81.5287C278.441 81.5808 278.916 81.5397 279.37 81.4078C279.823 81.2759 280.247 81.0558 280.615 80.7599C280.984 80.4641 281.291 80.0984 281.518 79.6837C281.746 79.269 281.89 78.8134 281.942 78.3429C281.994 77.8725 281.953 77.3964 281.821 76.9418C281.69 76.4872 281.47 76.063 281.175 75.6935C280.88 75.324 280.515 75.0163 280.101 74.7882C279.688 74.56 279.233 74.4157 278.764 74.3636L265.541 72.8957L238.158 69.8523C237.21 69.7473 236.259 70.024 235.514 70.6215C234.769 71.2191 234.292 72.0886 234.187 73.0389C234.082 73.9892 234.357 74.9425 234.953 75.6892C235.549 76.4359 236.416 76.9149 237.364 77.0208Z" fill="white"/>
<path d="M235.657 90.3127C235.734 90.3266 235.812 90.3404 235.891 90.3481L270.689 94.2122L276.499 94.8587C277.448 94.9638 278.399 94.6871 279.143 94.0893C279.888 93.4915 280.365 92.6217 280.47 91.6712C280.575 90.7207 280.299 89.7673 279.703 89.0208C279.106 88.2743 278.239 87.7959 277.29 87.6908L268.889 86.7591L241.324 83.6975L236.685 83.1823C235.757 83.0785 234.826 83.3405 234.087 83.9127C233.349 84.485 232.861 85.3227 232.728 86.2487C232.594 87.1747 232.825 88.1165 233.372 88.8749C233.919 89.6333 234.738 90.149 235.657 90.3127Z" fill="white"/>
<path d="M231.719 102.099C232.004 102.573 232.394 102.976 232.86 103.274C233.325 103.573 233.853 103.76 234.402 103.821L248.665 105.405L274.068 108.226L274.073 108.224L274.885 108.315L278.983 105.107C279.009 104.863 279.009 104.618 278.984 104.374C278.897 103.556 278.535 102.792 277.956 102.208C277.378 101.624 276.618 101.256 275.802 101.164L272.273 100.771L258.275 99.2184L248.203 98.0988L235.193 96.6535C234.526 96.5795 233.852 96.6939 233.247 96.9838C232.642 97.2737 232.13 97.7276 231.768 98.294C231.407 98.8605 231.21 99.517 231.202 100.189C231.193 100.862 231.372 101.523 231.719 102.099Z" fill="white"/>
<path d="M251.752 60.7736L259.211 61.6016L262.505 61.9683L267.482 62.5204C268.43 62.6255 269.381 62.3487 270.126 61.751C270.87 61.1532 271.348 60.2834 271.453 59.3328C271.557 58.3823 271.281 57.429 270.685 56.6825C270.089 55.936 269.221 55.4576 268.273 55.3524L252.547 53.6078C251.599 53.5022 250.648 53.7783 249.903 54.3756C249.158 54.9728 248.68 55.8422 248.575 56.7924C248.47 57.7427 248.745 58.696 249.341 59.4426C249.937 60.1892 250.804 60.6679 251.752 60.7736Z" fill="white"/>
<path d="M190.763 80.7324L199.857 118.385L215.034 121.277L229.073 123.956L244.136 126.829L248.949 127.747C249.231 127.801 249.52 127.793 249.799 127.726C250.078 127.658 250.339 127.532 250.565 127.355L254.426 124.332L256.871 122.419L274.221 108.835L263.189 63.1582C263.08 62.7038 262.843 62.2905 262.505 61.9682C262.209 61.683 261.846 61.4771 261.45 61.3694C261.053 61.2618 260.636 61.256 260.237 61.3524L192.565 77.7731C191.934 77.9265 191.391 78.3242 191.053 78.8791C190.715 79.434 190.611 80.1005 190.763 80.7324Z" fill="#C28E5B"/>
<path d="M211.614 110.686C211.84 111.615 212.423 112.416 213.237 112.914C214.051 113.412 215.029 113.566 215.956 113.342L255.665 103.706C256.591 103.48 257.39 102.895 257.887 102.079C258.383 101.264 258.537 100.284 258.314 99.3545C258.304 99.3084 258.291 99.263 258.275 99.2185C258.022 98.3227 257.432 97.56 256.63 97.0903C255.828 96.6207 254.875 96.4804 253.972 96.699L214.264 106.334C213.337 106.56 212.538 107.145 212.041 107.961C211.544 108.777 211.391 109.757 211.614 110.686Z" fill="white"/>
<path d="M215.034 121.277L229.073 123.956L258.812 116.74C259.739 116.515 260.539 115.93 261.036 115.114C261.533 114.298 261.686 113.318 261.462 112.388C261.237 111.459 260.654 110.657 259.84 110.159C259.025 109.661 258.047 109.508 257.12 109.733L217.411 119.368C216.582 119.568 215.851 120.059 215.351 120.752C215.231 120.918 215.124 121.094 215.034 121.277Z" fill="white"/>
<path d="M244.136 126.829L248.949 127.747C249.231 127.801 249.52 127.793 249.799 127.726C250.078 127.658 250.339 127.532 250.565 127.355L254.426 124.332L244.136 126.829Z" fill="white"/>
<path d="M219.615 90.4962C219.841 91.425 220.424 92.2263 221.238 92.7242C222.052 93.2221 223.03 93.3759 223.957 93.1518L239.337 89.4198C240.264 89.1936 241.063 88.6085 241.559 87.7927C242.056 86.977 242.209 85.9971 241.986 85.0679C241.867 84.5686 241.641 84.1012 241.324 83.6976C240.898 83.152 240.325 82.7407 239.673 82.5128C239.02 82.2849 238.316 82.2501 237.645 82.4124L222.265 86.1444C221.338 86.3694 220.538 86.9543 220.041 87.7704C219.544 88.5865 219.391 89.567 219.615 90.4962Z" fill="white"/>
<path d="M229.072 123.956L244.137 126.83L248.949 127.748C249.23 127.801 249.52 127.793 249.798 127.726C250.077 127.658 250.338 127.532 250.564 127.356L254.428 124.333L253.072 124.662L250.21 126.9C250.048 127.026 249.862 127.116 249.663 127.164C249.464 127.212 249.257 127.218 249.056 127.18L245.493 126.501L230.428 123.627L229.072 123.956ZM274.072 108.227L274.219 108.834L274.887 108.313L274.072 108.227ZM229.072 123.956L244.137 126.83L248.949 127.748C249.23 127.801 249.52 127.793 249.798 127.726C250.077 127.658 250.338 127.532 250.564 127.356L254.428 124.333L253.072 124.662L250.21 126.9C250.048 127.026 249.862 127.116 249.663 127.164C249.464 127.212 249.257 127.218 249.056 127.18L245.493 126.501L230.428 123.627L229.072 123.956ZM229.072 123.956L244.137 126.83L248.949 127.748C249.23 127.801 249.52 127.793 249.798 127.726C250.077 127.658 250.338 127.532 250.564 127.356L254.428 124.333L253.072 124.662L250.21 126.9C250.048 127.026 249.862 127.116 249.663 127.164C249.464 127.212 249.257 127.218 249.056 127.18L245.493 126.501L230.428 123.627L229.072 123.956ZM179.989 116.909L196.988 187.298C197.115 187.818 197.441 188.267 197.897 188.546C198.353 188.824 198.901 188.911 199.42 188.785L322.459 158.93C322.978 158.803 323.426 158.476 323.704 158.019C323.982 157.562 324.068 157.013 323.943 156.492L306.943 86.1031C306.865 85.7745 306.705 85.4711 306.478 85.2211C306.252 84.971 305.966 84.7824 305.647 84.6727C305.412 84.5898 305.163 84.5522 304.913 84.5621C304.623 84.5705 304.338 84.6456 304.081 84.7816C303.962 84.8381 303.85 84.9078 303.747 84.9895L293.649 92.893L278.984 104.376L274.071 108.222L274.072 108.227L274.068 108.228L256.051 122.325L253.072 124.662L250.21 126.9C250.048 127.026 249.862 127.116 249.663 127.164C249.464 127.212 249.257 127.218 249.056 127.18L245.493 126.501L230.428 123.627L215.349 120.753L182.323 114.453C182.042 114.397 181.751 114.403 181.472 114.471C181.097 114.563 180.756 114.761 180.489 115.042C180.387 115.152 180.296 115.273 180.218 115.401C179.947 115.854 179.864 116.395 179.989 116.909ZM229.072 123.956L244.137 126.83L248.949 127.748C249.23 127.801 249.52 127.793 249.798 127.726C250.077 127.658 250.338 127.532 250.564 127.356L254.428 124.333L253.072 124.662L250.21 126.9C250.048 127.026 249.862 127.116 249.663 127.164C249.464 127.212 249.257 127.218 249.056 127.18L245.493 126.501L230.428 123.627L229.072 123.956ZM229.072 123.956L244.137 126.83L248.949 127.748C249.23 127.801 249.52 127.793 249.798 127.726C250.077 127.658 250.338 127.532 250.564 127.356L254.428 124.333L253.072 124.662L250.21 126.9C250.048 127.026 249.862 127.116 249.663 127.164C249.464 127.212 249.257 127.218 249.056 127.18L245.493 126.501L230.428 123.627L229.072 123.956ZM229.072 123.956L244.137 126.83L248.949 127.748C249.23 127.801 249.52 127.793 249.798 127.726C250.077 127.658 250.338 127.532 250.564 127.356L254.428 124.333L253.072 124.662L250.21 126.9C250.048 127.026 249.862 127.116 249.663 127.164C249.464 127.212 249.257 127.218 249.056 127.18L245.493 126.501L230.428 123.627L229.072 123.956Z" fill="white"/>
<path d="M229.072 123.956L244.137 126.83L248.949 127.748C249.23 127.801 249.52 127.793 249.798 127.726C250.077 127.658 250.338 127.532 250.564 127.356L254.428 124.333L253.072 124.662L250.21 126.9C250.048 127.026 249.862 127.116 249.663 127.164C249.464 127.212 249.257 127.218 249.056 127.18L245.493 126.501L230.428 123.627L229.072 123.956ZM274.072 108.226L274.219 108.834L274.887 108.313L274.072 108.226ZM229.072 123.956L244.137 126.83L248.949 127.748C249.23 127.801 249.52 127.793 249.798 127.726C250.077 127.658 250.338 127.532 250.564 127.356L254.428 124.333L253.072 124.662L250.21 126.9C250.048 127.026 249.862 127.116 249.663 127.164C249.464 127.212 249.257 127.218 249.056 127.18L245.493 126.501L230.428 123.627L229.072 123.956ZM229.072 123.956L244.137 126.83L248.949 127.748C249.23 127.801 249.52 127.793 249.798 127.726C250.077 127.658 250.338 127.532 250.564 127.356L254.428 124.333L253.072 124.662L250.21 126.9C250.048 127.026 249.862 127.116 249.663 127.164C249.464 127.212 249.257 127.218 249.056 127.18L245.493 126.501L230.428 123.627L229.072 123.956ZM180.778 115.444L180.853 115.501C180.865 115.48 180.887 115.462 180.904 115.44C181.07 115.266 181.277 115.137 181.506 115.063C181.735 114.989 181.979 114.973 182.215 115.017L215.035 121.275L229.072 123.956L244.137 126.83L248.949 127.748C249.23 127.801 249.52 127.793 249.798 127.726C250.077 127.658 250.338 127.532 250.564 127.356L254.428 124.333L253.072 124.662L250.21 126.9C250.048 127.026 249.862 127.116 249.663 127.164C249.464 127.212 249.257 127.218 249.056 127.18L245.493 126.501L230.428 123.627L215.349 120.752L182.323 114.453C182.042 114.397 181.751 114.403 181.472 114.471L180.778 115.444ZM179.989 116.909L196.988 187.298C197.115 187.818 197.441 188.267 197.897 188.546C198.353 188.824 198.901 188.911 199.42 188.785L322.459 158.93C322.978 158.803 323.426 158.476 323.704 158.019C323.982 157.562 324.068 157.013 323.943 156.492L306.943 86.1031C306.865 85.7745 306.705 85.4711 306.478 85.2211C306.252 84.971 305.966 84.7824 305.647 84.6727C305.412 84.5898 305.163 84.5522 304.913 84.5621C304.623 84.5705 304.338 84.6456 304.081 84.7816C303.962 84.8381 303.85 84.9078 303.747 84.9895L293.649 92.893L278.984 104.376L274.071 108.222L274.072 108.226L274.068 108.228L256.051 122.325L253.072 124.662L250.21 126.9C250.048 127.026 249.862 127.116 249.663 127.164C249.464 127.212 249.257 127.218 249.056 127.18L245.493 126.501L230.428 123.627L215.349 120.752L182.323 114.453C182.042 114.397 181.751 114.403 181.472 114.471C181.097 114.563 180.756 114.761 180.489 115.042C180.387 115.152 180.296 115.273 180.218 115.401C179.947 115.854 179.864 116.395 179.989 116.909ZM180.549 116.773C180.499 116.565 180.496 116.349 180.54 116.14C180.584 115.931 180.674 115.735 180.803 115.565C180.815 115.54 180.832 115.518 180.853 115.501C180.865 115.48 180.887 115.462 180.904 115.44C181.07 115.266 181.277 115.137 181.506 115.063C181.735 114.989 181.979 114.973 182.215 115.017L215.035 121.275L229.072 123.956L244.137 126.83L248.949 127.748C249.23 127.801 249.52 127.793 249.798 127.726C250.077 127.658 250.338 127.532 250.564 127.356L254.428 124.333L256.872 122.419L274.219 108.834L274.887 108.313L278.981 105.107L293.563 93.6923L304.105 85.4405C304.265 85.3153 304.45 85.2256 304.648 85.1776C304.703 85.1641 304.759 85.1549 304.815 85.15C304.865 85.141 304.915 85.1362 304.965 85.1357C305.133 85.1341 305.301 85.1615 305.46 85.2167C305.687 85.296 305.891 85.431 306.053 85.6093C306.215 85.7877 306.33 86.0039 306.387 86.2381L323.387 156.627C323.432 156.812 323.44 157.003 323.41 157.191C323.381 157.379 323.315 157.558 323.217 157.721C323.118 157.883 322.989 158.024 322.835 158.135C322.682 158.247 322.509 158.328 322.325 158.372L199.285 188.227C198.914 188.317 198.523 188.255 198.197 188.055C197.871 187.855 197.638 187.534 197.549 187.162L180.549 116.773ZM229.072 123.956L244.137 126.83L248.949 127.748C249.23 127.801 249.52 127.793 249.798 127.726C250.077 127.658 250.338 127.532 250.564 127.356L254.428 124.333L253.072 124.662L250.21 126.9C250.048 127.026 249.862 127.116 249.663 127.164C249.464 127.212 249.257 127.218 249.056 127.18L245.493 126.501L230.428 123.627L229.072 123.956ZM229.072 123.956L244.137 126.83L248.949 127.748C249.23 127.801 249.52 127.793 249.798 127.726C250.077 127.658 250.338 127.532 250.564 127.356L254.428 124.333L253.072 124.662L250.21 126.9C250.048 127.026 249.862 127.116 249.663 127.164C249.464 127.212 249.257 127.218 249.056 127.18L245.493 126.501L230.428 123.627L229.072 123.956ZM229.072 123.956L244.137 126.83L248.949 127.748C249.23 127.801 249.52 127.793 249.798 127.726C250.077 127.658 250.338 127.532 250.564 127.356L254.428 124.333L253.072 124.662L250.21 126.9C250.048 127.026 249.862 127.116 249.663 127.164C249.464 127.212 249.257 127.218 249.056 127.18L245.493 126.501L230.428 123.627L229.072 123.956Z" fill="#3F3D56"/>
<path d="M290.392 145.101C290.114 143.947 290.305 142.731 290.922 141.718C291.538 140.705 292.53 139.979 293.68 139.698L309.209 135.93C310.359 135.656 311.569 135.849 312.577 136.467C313.584 137.086 314.306 138.08 314.584 139.23C314.862 140.381 314.673 141.596 314.06 142.607C313.446 143.619 312.457 144.346 311.31 144.629L295.781 148.397C294.63 148.675 293.417 148.484 292.406 147.866C291.396 147.248 290.671 146.253 290.392 145.101Z" fill="#C28E5B"/>
<path d="M118.776 132.028C120.902 132.028 122.625 130.301 122.625 128.17C122.625 126.039 120.902 124.312 118.776 124.312C116.65 124.312 114.927 126.039 114.927 128.17C114.927 130.301 116.65 132.028 118.776 132.028Z" fill="white"/>
</g>
<defs>
<clipPath id="clip0_703_204">
<rect width="317" height="272" fill="white" transform="translate(7 24)"/>
</clipPath>
</defs>
</svg>
